<svg xmlns="http://www.w3.org/2000/svg" viewBox="0 0 750 500"><g id="freepik--background-complete--inject-157"><rect x="615" y="345.67" width="12.25" height="71.24" style="fill:#ebebeb"></rect><path d="M618.51,111.41c0,1.3-25.67,82.25-25.67,82.25l12.84-13.06-18.5,56.58,12.19-17L585,291.14l7-7.4-12.19,50.05,10.45-13.06-10.45,37.43,82.69-6.09-19.59-70.5,11.83,13.05L639.4,243.27l7.84,4.35-17.85-66.15,8.27,5.66Z" style="fill:#f5f5f5"></path><path d="M630.83,242.25s-.11-.07-.28-.23l-.75-.72L627,238.54l-9.56-9.71.39-.12L616.11,239c-.35,2-.7,4-1,5.94l-.15.84-.31-.79a88.62,88.62,0,0,1-4.75-16c-.4-2-.65-3.7-.79-4.84-.08-.57-.12-1-.15-1.31a1.46,1.46,0,0,1,0-.46,2.4,2.4,0,0,1,.11.45c.06.34.13.77.22,1.29.2,1.13.5,2.77.94,4.8a95.9,95.9,0,0,0,4.89,15.88l-.47,0,1-5.93c.63-3.63,1.23-7.1,1.79-10.27l.07-.45.32.33,9.43,9.83,2.68,2.85.7.77A1.39,1.39,0,0,1,630.83,242.25Z" style="fill:#e0e0e0"></path><path d="M629,278.75a3.11,3.11,0,0,1-.22.61l-.72,1.73c-.66,1.55-1.59,3.7-2.73,6.35-2.38,5.4-5.64,12.8-9.27,21.07l-.31.69-.16-.74-.42-1.88c-1.23-5.59-2.38-10.86-3.38-15.42l.39.07-7.56,11.14c-.91,1.3-1.63,2.35-2.16,3.12l-.59.81a1.54,1.54,0,0,1-.22.27,1.6,1.6,0,0,1,.16-.31l.53-.85,2.06-3.19c1.83-2.77,4.38-6.64,7.42-11.23l.28-.43.11.5c1,4.56,2.2,9.83,3.44,15.41.15.65.29,1.29.42,1.89l-.47-.05c3.7-8.24,7-15.63,9.42-21l2.87-6.28.8-1.7A2.89,2.89,0,0,1,629,278.75Z" style="fill:#e0e0e0"></path><path d="M627.64,174.86A6.8,6.8,0,0,1,627,174l-1.62-2.42-5.56-8.54.41-.08c-.56,2.83-1.08,6-1.46,9.33-.31,2.66-.5,5.22-.61,7.57l0,.9-.4-.81a54.49,54.49,0,0,1-4-10.79c-.35-1.38-.57-2.49-.7-3.25a7.61,7.61,0,0,1-.16-1.18,7.23,7.23,0,0,1,.31,1.15c.18.75.45,1.84.83,3.2a59.52,59.52,0,0,0,4.15,10.66l-.44.1c.1-2.36.28-4.94.59-7.61.38-3.35.92-6.53,1.51-9.36l.12-.55.29.48c2.19,3.48,4,6.46,5.42,8.64.61,1,1.12,1.85,1.51,2.48A4.42,4.42,0,0,1,627.64,174.86Z" style="fill:#e0e0e0"></path><rect x="144.84" y="330.35" width="14.88" height="86.55" style="fill:#ebebeb"></rect><path d="M149.11,45.73c0,1.58-31.2,99.93-31.2,99.93l15.6-15.86L111,198.54l14.81-20.63L108.39,264.1l8.46-9-14.8,60.81,12.69-15.86-12.69,45.47,100.46-7.4-23.79-85.66,14.37,15.86-18.6-62.39,9.51,5.29-21.68-80.37,10.05,6.87Z" style="fill:#ebebeb"></path><path d="M164.07,207.2s-.13-.08-.34-.28l-.92-.87-3.36-3.35-11.62-11.8.48-.14c-.66,3.85-1.38,8.07-2.13,12.48-.43,2.47-.84,4.88-1.25,7.21l-.17,1-.39-1a108.75,108.75,0,0,1-5.77-19.43c-.48-2.49-.79-4.5-1-5.88-.09-.69-.14-1.23-.18-1.59a2.19,2.19,0,0,1,0-.56,3.35,3.35,0,0,1,.13.55l.27,1.57c.24,1.37.6,3.36,1.14,5.83a117.65,117.65,0,0,0,5.94,19.29l-.57.06c.4-2.33.81-4.74,1.24-7.21.77-4.41,1.5-8.63,2.17-12.48l.09-.55.39.4,11.45,12,3.26,3.46.85.94A2,2,0,0,1,164.07,207.2Z" style="fill:#e0e0e0"></path><path d="M161.85,251.55a6.31,6.31,0,0,1-.27.75c-.22.53-.51,1.23-.88,2.1-.8,1.88-1.93,4.49-3.32,7.71-2.88,6.56-6.84,15.56-11.26,25.6l-.37.84-.2-.89-.51-2.3c-1.49-6.78-2.89-13.18-4.11-18.73l.48.09-9.19,13.53L129.6,284l-.72,1a1.5,1.5,0,0,1-.26.32s0-.13.19-.37l.65-1,2.5-3.88,9-13.65.34-.52.14.61c1.24,5.55,2.67,11.94,4.18,18.72.17.79.35,1.57.51,2.3l-.57-.06L157,261.94l3.5-7.63c.4-.85.72-1.54,1-2.06A3.62,3.62,0,0,1,161.85,251.55Z" style="fill:#e0e0e0"></path><path d="M160.2,125.33a7,7,0,0,1-.76-1l-2-2.94c-1.71-2.61-4-6.19-6.76-10.38l.5-.09c-.69,3.43-1.31,7.27-1.78,11.33-.37,3.23-.61,6.34-.74,9.2l-.06,1.09-.48-1a65.84,65.84,0,0,1-4.88-13.11c-.42-1.68-.69-3-.85-4a7.9,7.9,0,0,1-.19-1.43,8.38,8.38,0,0,1,.37,1.4c.22.91.54,2.23,1,3.89a71.79,71.79,0,0,0,5,12.95l-.54.11c.11-2.87.34-6,.71-9.24.47-4.08,1.12-7.93,1.84-11.37l.14-.67.36.58,6.58,10.5,1.83,3A7.11,7.11,0,0,1,160.2,125.33Z" style="fill:#e0e0e0"></path><rect x="54.52" y="330.35" width="14.88" height="86.55" style="fill:#ebebeb"></rect><path d="M58.79,45.73c0,1.58-31.2,99.93-31.2,99.93l15.6-15.86L20.72,198.54l14.8-20.63L18.07,264.1l8.46-9-14.8,60.81,12.69-15.86L11.73,345.53l100.46-7.4L88.4,252.47l14.37,15.86-18.6-62.39,9.51,5.29L72,130.86l10,6.87Z" style="fill:#ebebeb"></path><path d="M73.75,207.2a1.42,1.42,0,0,1-.34-.28l-.91-.87-3.37-3.35L57.52,190.9l.47-.14c-.65,3.85-1.37,8.07-2.13,12.48-.43,2.47-.84,4.88-1.25,7.21l-.17,1-.39-1a107.77,107.77,0,0,1-5.76-19.43c-.49-2.49-.79-4.5-1-5.88-.09-.69-.14-1.23-.18-1.59a2.19,2.19,0,0,1,0-.56,2.41,2.41,0,0,1,.13.55l.27,1.57c.24,1.37.6,3.36,1.14,5.83a117.65,117.65,0,0,0,5.94,19.29l-.57.06c.4-2.33.82-4.74,1.24-7.21.77-4.41,1.5-8.63,2.17-12.48l.1-.55.38.4,11.46,12,3.25,3.46.85.94A1.5,1.5,0,0,1,73.75,207.2Z" style="fill:#e0e0e0"></path><path d="M71.53,251.55a4.6,4.6,0,0,1-.27.75l-.87,2.1-3.33,7.71c-2.88,6.56-6.84,15.56-11.26,25.6l-.37.84-.2-.89c-.16-.73-.33-1.51-.51-2.3-1.48-6.78-2.89-13.18-4.11-18.73l.48.09-9.18,13.53L39.28,284l-.71,1a1.69,1.69,0,0,1-.27.32,1.8,1.8,0,0,1,.19-.37c.18-.27.39-.61.65-1l2.5-3.88c2.22-3.36,5.33-8.06,9-13.65l.35-.52.13.61c1.24,5.55,2.67,11.94,4.18,18.72.18.79.35,1.57.51,2.3l-.57-.06c4.49-10,8.51-19,11.44-25.53l3.49-7.63c.4-.85.73-1.54,1-2.06A3.62,3.62,0,0,1,71.53,251.55Z" style="fill:#e0e0e0"></path><path d="M69.88,125.33a6.62,6.62,0,0,1-.75-1c-.51-.75-1.16-1.73-2-2.94-1.71-2.61-4-6.19-6.76-10.38l.5-.09c-.69,3.43-1.31,7.27-1.78,11.33-.37,3.23-.61,6.34-.74,9.2l-.05,1.09-.49-1A65.84,65.84,0,0,1,53,118.43c-.42-1.68-.69-3-.85-4a7.9,7.9,0,0,1-.19-1.43,7.29,7.29,0,0,1,.37,1.4c.22.91.54,2.23,1,3.89a72.55,72.55,0,0,0,5.05,12.95l-.54.11c.12-2.87.34-6,.71-9.24.47-4.08,1.12-7.93,1.84-11.37l.14-.67.36.58c2.66,4.23,4.92,7.85,6.58,10.5l1.84,3A6.43,6.43,0,0,1,69.88,125.33Z" style="fill:#e0e0e0"></path><rect x="672.66" y="320.65" width="14.88" height="95.52" style="fill:#ebebeb"></rect><path d="M676.93,36c0,1.59-31.2,99.94-31.2,99.94l15.6-15.86-22.47,68.73,14.81-20.62L636.22,254.4l8.46-9-14.81,60.81,12.69-15.87-12.69,45.48,100.46-7.41-23.79-85.65,14.37,15.86-18.6-62.39,9.52,5.28-21.68-80.37L700.2,128Z" style="fill:#ebebeb"></path><path d="M691.89,195s-.13-.08-.34-.28l-.91-.87-3.37-3.35-11.61-11.8.48-.14c-.66,3.85-1.38,8.07-2.13,12.48-.43,2.47-.85,4.88-1.25,7.21l-.18,1-.39-1a108.6,108.6,0,0,1-5.76-19.43c-.49-2.49-.79-4.49-1-5.88-.09-.69-.14-1.23-.17-1.59a1.91,1.91,0,0,1,0-.55,2,2,0,0,1,.13.54c.07.41.17.93.28,1.57.24,1.37.6,3.36,1.13,5.83a117.65,117.65,0,0,0,5.94,19.29l-.56.06c.4-2.33.81-4.74,1.23-7.21.77-4.41,1.5-8.63,2.17-12.48l.1-.55.38.4,11.46,11.95,3.25,3.46.85.94A1.82,1.82,0,0,1,691.89,195Z" style="fill:#e0e0e0"></path><path d="M689.67,239.34a3.4,3.4,0,0,1-.27.75l-.87,2.1c-.81,1.88-1.94,4.49-3.32,7.71l-11.27,25.6-.37.84-.19-.89c-.17-.73-.34-1.51-.51-2.3-1.49-6.78-2.9-13.18-4.11-18.73l.48.09c-3.76,5.54-6.93,10.19-9.19,13.53l-2.63,3.79-.71,1a1.69,1.69,0,0,1-.27.32,2.47,2.47,0,0,1,.2-.37l.64-1,2.51-3.88,9-13.65.35-.52.14.61c1.23,5.55,2.66,11.94,4.17,18.72.18.79.35,1.57.51,2.3l-.57-.06,11.44-25.52,3.49-7.64c.41-.85.73-1.54,1-2.06A3.36,3.36,0,0,1,689.67,239.34Z" style="fill:#e0e0e0"></path><path d="M688,113.12a7.56,7.56,0,0,1-.75-1l-2-2.93-6.76-10.39.5-.09c-.68,3.43-1.31,7.27-1.78,11.33-.37,3.23-.6,6.34-.74,9.2l0,1.09-.49-1a66.34,66.34,0,0,1-4.87-13.11c-.43-1.68-.7-3-.86-4a7.19,7.19,0,0,1-.18-1.43,10.41,10.41,0,0,1,.37,1.4c.22.91.54,2.23,1,3.89a72.39,72.39,0,0,0,5,13l-.54.11c.12-2.86.35-6,.72-9.24.47-4.07,1.11-7.93,1.83-11.37l.15-.67.36.58,6.57,10.5,1.84,3A5.63,5.63,0,0,1,688,113.12Z" style="fill:#e0e0e0"></path><path d="M327.08,54.54c.58-4.27-5.44-7.78-10-8.14-2.16-.18-4.4.15-6.45-.56-4.43-1.55-6.2-7.27-10.53-9.1-3.23-1.36-6.95-.15-10.09,1.43s-6.23,3.56-9.73,3.79c-3.05.19-6.36-.94-9,.55-2,1.11-3,3.4-4.86,4.75s-4.13,1.6-6.35,1.72-4.52.14-6.54,1.07-3.7,3.07-3.28,5.25Z" style="fill:#e0e0e0"></path><path d="M269.78,118.65c.57-4.13-5.26-7.53-9.64-7.88-2.09-.17-4.26.15-6.24-.54-4.29-1.5-6-7-10.19-8.81-3.13-1.32-6.74-.14-9.77,1.39s-6,3.44-9.42,3.66c-3,.19-6.15-.9-8.73.54-1.92,1.07-2.93,3.29-4.7,4.59s-4,1.55-6.15,1.67-4.37.14-6.33,1-3.58,3-3.17,5.09Z" style="fill:#ebebeb"></path><path d="M555.24,127.32c.4-2.91-3.7-5.3-6.78-5.55-1.47-.11-3,.11-4.39-.37-3-1.06-4.22-5-7.17-6.19-2.2-.93-4.73-.11-6.86,1s-4.24,2.42-6.63,2.57c-2.07.14-4.32-.63-6.13.38-1.36.76-2.06,2.31-3.31,3.23a7.86,7.86,0,0,1-4.32,1.17,12.3,12.3,0,0,0-4.45.73,3.51,3.51,0,0,0-2.23,3.57Z" style="fill:#ebebeb"></path><path d="M457.4,65a11.12,11.12,0,0,1-1.11-.24,8.65,8.65,0,0,0-3.05-.08,8.28,8.28,0,0,0-4.08,1.78A8.55,8.55,0,0,0,446.28,71v0l-.17.68-.26-.64a9.23,9.23,0,0,0-3.45-4.18,8.92,8.92,0,0,0-4.22-1.43A11.36,11.36,0,0,0,434,66a3.35,3.35,0,0,1,1-.46,8.78,8.78,0,0,1,3.1-.39,9,9,0,0,1,4.43,1.4,9.36,9.36,0,0,1,3.64,4.36l-.43,0v0a8.78,8.78,0,0,1,3.05-4.81,8.35,8.35,0,0,1,4.31-1.77,8.48,8.48,0,0,1,3.13.22A3.58,3.58,0,0,1,457.4,65Z" style="fill:#e0e0e0"></path><circle cx="557.19" cy="61.68" r="16.3" transform="translate(19.46 220.16) rotate(-22.74)" style="fill:#e0e0e0"></circle><path d="M556.26,79.78a45.64,45.64,0,0,1,.25,6.76,45.53,45.53,0,0,1-.25,6.76,47.22,47.22,0,0,1-.25-6.76A47.33,47.33,0,0,1,556.26,79.78Z" style="fill:#e0e0e0"></path><path d="M547.16,77.56A19.6,19.6,0,0,1,544.52,81a19.29,19.29,0,0,1-3,3.16,18.67,18.67,0,0,1,2.63-3.48A18.63,18.63,0,0,1,547.16,77.56Z" style="fill:#e0e0e0"></path><path d="M537.88,67.83a58.08,58.08,0,0,1-6.65,3.9,61.78,61.78,0,0,1-6.89,3.45A57.88,57.88,0,0,1,531,71.29,60,60,0,0,1,537.88,67.83Z" style="fill:#e0e0e0"></path><path d="M534.63,56.23a28.62,28.62,0,0,1-5.27.62,29.51,29.51,0,0,1-5.3.12,56.16,56.16,0,0,1,10.57-.74Z" style="fill:#e0e0e0"></path><path d="M540,48.32a58,58,0,0,1-5.71-5.23A59.1,59.1,0,0,1,529,37.5a62.08,62.08,0,0,1,5.71,5.24A61.56,61.56,0,0,1,540,48.32Z" style="fill:#e0e0e0"></path><path d="M550.05,42.19a9.79,9.79,0,0,1-1.46-2.73,9.83,9.83,0,0,1-1-2.93,9.85,9.85,0,0,1,1.45,2.73A9.85,9.85,0,0,1,550.05,42.19Z" style="fill:#e0e0e0"></path><path d="M559,27.16a49.75,49.75,0,0,1,.15,7.13,50.66,50.66,0,0,1-.36,7.13,50.92,50.92,0,0,1-.14-7.14A53.38,53.38,0,0,1,559,27.16Z" style="fill:#e0e0e0"></path><path d="M575.45,36.75a19.06,19.06,0,0,1-2.26,3.7,19,19,0,0,1-2.66,3.43,18.91,18.91,0,0,1,2.25-3.71A18.43,18.43,0,0,1,575.45,36.75Z" style="fill:#e0e0e0"></path><path d="M590.94,40.68a88.45,88.45,0,0,1-7.86,5.14A89.65,89.65,0,0,1,575,50.54a88.58,88.58,0,0,1,7.85-5.15A85.83,85.83,0,0,1,590.94,40.68Z" style="fill:#e0e0e0"></path><path d="M571.73,84.47a9.16,9.16,0,0,1-2.13-3,9.17,9.17,0,0,1-1.26-3.44,26.39,26.39,0,0,1,1.71,3.2A26.14,26.14,0,0,1,571.73,84.47Z" style="fill:#e0e0e0"></path><path d="M588,81.48a77.37,77.37,0,0,1-7.81-4.06,77.25,77.25,0,0,1-7.57-4.49A75.66,75.66,0,0,1,580.43,77,77.77,77.77,0,0,1,588,81.48Z" style="fill:#e0e0e0"></path><path d="M586.26,69.22a26.88,26.88,0,0,1-4.89-1.74,26.73,26.73,0,0,1-4.7-2.21A26.6,26.6,0,0,1,581.56,67,26.73,26.73,0,0,1,586.26,69.22Z" style="fill:#e0e0e0"></path><path d="M589,57.2a33.23,33.23,0,0,1-5.63.83,32.2,32.2,0,0,1-5.68.33,33,33,0,0,1,5.63-.83A32.18,32.18,0,0,1,589,57.2Z" style="fill:#e0e0e0"></path></g><g id="freepik--Plants--inject-157"><path d="M284.23,480.17c-.1,0-.1-1.37-.45-3.54a20.6,20.6,0,0,0-1-3.7,20,20,0,0,0-2.16-4.16,29.53,29.53,0,0,0-5.95-6.12c-1.73-1.35-2.87-2.12-2.82-2.19a3.52,3.52,0,0,1,.86.45c.53.31,1.28.81,2.18,1.45a25.94,25.94,0,0,1,6.16,6.12,19.24,19.24,0,0,1,2.18,4.28,19.25,19.25,0,0,1,1.06,6.45A3.67,3.67,0,0,1,284.23,480.17Z" style="fill:#263238"></path><path d="M292.46,442.12a9.17,9.17,0,0,1-.45,1.45c-.33.91-.77,2.25-1.29,3.9a79.83,79.83,0,0,0-2.93,13.22,72.43,72.43,0,0,0-.41,13.52c.11,1.73.24,3.13.35,4.09a9.91,9.91,0,0,1,.11,1.51,7.2,7.2,0,0,1-.31-1.48c-.18-1-.36-2.36-.52-4.09a63.71,63.71,0,0,1,.27-13.62,68.9,68.9,0,0,1,3.09-13.26c.57-1.65,1.07-3,1.45-3.86A8,8,0,0,1,292.46,442.12Z" style="fill:#263238"></path><path d="M300.26,461.34c.07.07-.77.87-1.88,2.35a22.83,22.83,0,0,0-4.55,13.46c0,1.85.16,3,.07,3a2.41,2.41,0,0,1-.21-.79,14.45,14.45,0,0,1-.23-2.22,20.5,20.5,0,0,1,4.63-13.68,13.28,13.28,0,0,1,1.53-1.62A3,3,0,0,1,300.26,461.34Z" style="fill:#263238"></path><path d="M709,416.48c-.17.08-1.15-3.89-4.29-7.64a29.46,29.46,0,0,0-6.68-5.68,8.31,8.31,0,0,1,2.35,1.16,19.88,19.88,0,0,1,7.93,9.64A8.59,8.59,0,0,1,709,416.48Z" style="fill:#263238"></path><path d="M710.18,392.49c.08,0,0,1.41-.07,3.67a62.16,62.16,0,0,0,2.12,17.45c.58,2.18,1,3.51.95,3.54a3.54,3.54,0,0,1-.42-.9c-.24-.58-.54-1.45-.88-2.54A50.21,50.21,0,0,1,710,405a51.07,51.07,0,0,1-.3-8.87c.07-1.14.16-2,.25-2.68A3.67,3.67,0,0,1,710.18,392.49Z" style="fill:#263238"></path><path d="M723,400.67a68.08,68.08,0,0,0-4.1,7.73,20.16,20.16,0,0,0-1.52,5.94c-.13,1.57,0,2.55,0,2.56s-.11-.23-.2-.67a5.4,5.4,0,0,1-.1-.82,7.54,7.54,0,0,1,0-1.09,17.67,17.67,0,0,1,1.4-6.11,30.67,30.67,0,0,1,3-5.52A9.81,9.81,0,0,1,723,400.67Z" style="fill:#263238"></path><rect x="76.95" y="342.2" width="12.77" height="74.29" style="fill:#455a64"></rect><path d="M80.61,97.91c0,1.36-26.78,85.77-26.78,85.77l13.39-13.61-19.29,59,12.71-17.69-15,74,7.26-7.72-12.7,52.19L51.11,316.2l-10.89,39,86.22-6.36L106,275.35,118.35,289l-16-53.55,8.17,4.54L92,171l8.63,5.9Z" style="fill:#455a64"></path><path d="M93.45,234.35s-.11-.07-.29-.24l-.79-.75c-.71-.71-1.68-1.68-2.89-2.87l-10-10.13.41-.12c-.57,3.3-1.19,6.93-1.83,10.71-.37,2.12-.73,4.19-1.07,6.19l-.16.87-.33-.82a93.17,93.17,0,0,1-5-16.67c-.41-2.14-.67-3.86-.82-5.05-.08-.59-.13-1.06-.16-1.37a2.08,2.08,0,0,1,0-.47,1.57,1.57,0,0,1,.11.46l.24,1.35c.21,1.18.52,2.89,1,5A101.94,101.94,0,0,0,77,237l-.48.05c.34-2,.7-4.06,1.06-6.19.66-3.78,1.29-7.4,1.86-10.71l.08-.47.33.35,9.84,10.25,2.79,3,.73.81A1.28,1.28,0,0,1,93.45,234.35Z" style="fill:#263238"></path><path d="M62.08,301.39a33,33,0,0,1,.71-5.75A32.45,32.45,0,0,1,64,290a33,33,0,0,1-.71,5.74A32.43,32.43,0,0,1,62.08,301.39Z" style="fill:#263238"></path><path d="M91.54,272.42a3.13,3.13,0,0,1-.23.64l-.75,1.8-2.85,6.62c-2.48,5.63-5.87,13.35-9.67,22l-.31.72-.17-.77-.44-2c-1.28-5.83-2.48-11.32-3.53-16.08l.42.07c-3.23,4.76-6,8.75-7.89,11.62l-2.26,3.25-.61.85c-.14.19-.22.29-.23.28a1.33,1.33,0,0,1,.17-.32l.55-.89,2.15-3.32,7.73-11.72.3-.45.12.53c1.06,4.76,2.29,10.24,3.58,16.07l.44,2-.49-.05,9.82-21.9,3-6.56.83-1.76A4.59,4.59,0,0,1,91.54,272.42Z" style="fill:#263238"></path><path d="M98.33,338.8a84.8,84.8,0,0,1-6.08-7.37,88.83,88.83,0,0,1-5.68-7.69,87,87,0,0,1,6.08,7.37A88.83,88.83,0,0,1,98.33,338.8Z" style="fill:#263238"></path><path d="M90.13,164.08a6.2,6.2,0,0,1-.65-.87l-1.69-2.52L82,151.78l.43-.08c-.59,2.94-1.13,6.24-1.53,9.72-.31,2.77-.52,5.45-.63,7.89l-.05.94-.42-.84a56.72,56.72,0,0,1-4.18-11.25c-.36-1.44-.6-2.59-.73-3.39a5.82,5.82,0,0,1-.16-1.23,7.49,7.49,0,0,1,.31,1.2c.19.78.47,1.92.87,3.34a62.11,62.11,0,0,0,4.33,11.11l-.46.1c.1-2.46.29-5.14.61-7.93.4-3.5,1-6.81,1.58-9.76l.12-.57.31.49,5.64,9c.65,1.07,1.18,1.93,1.58,2.6A5.51,5.51,0,0,1,90.13,164.08Z" style="fill:#263238"></path><path d="M181.33,374.87a7.85,7.85,0,0,1,4.06,4.61,13.85,13.85,0,0,1,.54,6.24c-.46,4-2.76,8.13-5.24,11.36-3.4-3-4.19-8.16-4.42-10.82-.37-4.2,1.52-12,5.06-11.39" style="fill:#C2E1B9"></path><path d="M184.66,403.76a6.68,6.68,0,0,1,2.16-6.36,8.89,8.89,0,0,1,6.55-2,3.75,3.75,0,0,1,2.88,1.3,2.84,2.84,0,0,1,0,2.9,5.78,5.78,0,0,1-2.14,2.11c-3,1.85-6.15,3.11-9.49,2.1" style="fill:#C2E1B9"></path><path d="M180.29,416.17a4.19,4.19,0,0,1,.12-.83c.1-.58.24-1.34.41-2.24a23.67,23.67,0,0,1,2.32-7.19,14.35,14.35,0,0,1,5.15-5.47,9.75,9.75,0,0,1,2.1-.93c.26-.09.47-.12.61-.16l.21,0a13.33,13.33,0,0,0-7.81,6.73,25.44,25.44,0,0,0-2.38,7.08c-.2.94-.37,1.7-.5,2.23A5.66,5.66,0,0,1,180.29,416.17Z" style="fill:#263238"></path><path d="M180.41,381a1.58,1.58,0,0,1,.05.36q0,.4.06,1.05c0,.9.1,2.22.15,3.84.11,3.24.19,7.72.17,12.67s-.15,9.44-.28,12.68c-.06,1.62-.13,2.93-.19,3.84,0,.43-.05.77-.07,1a1.82,1.82,0,0,1,0,.36,1.41,1.41,0,0,1,0-.36c0-.27,0-.62,0-1,0-.95.05-2.25.09-3.85.08-3.24.17-7.72.19-12.67s0-9.43-.08-12.67c0-1.59,0-2.9-.06-3.84v-1A2.12,2.12,0,0,1,180.41,381Z" style="fill:#263238"></path><path d="M178.76,406.23a15.67,15.67,0,0,0-8.55-11.47c-1.14-.55-2.62-.9-3.56-.05s-.73,2.37-.27,3.55a13.38,13.38,0,0,0,12.3,8.3" style="fill:#C2E1B9"></path><path d="M170.76,398.6a3.6,3.6,0,0,1,.73.31,7.64,7.64,0,0,1,.81.44c.31.19.68.38,1,.65s.78.54,1.19.9a16.24,16.24,0,0,1,1.26,1.15,16,16,0,0,1,4,6.68c.16.58.31,1.13.4,1.66s.15,1,.2,1.48,0,.87.06,1.23a8.35,8.35,0,0,1,0,.92,4.29,4.29,0,0,1-.09.79c-.06,0,0-1.13-.15-2.92a14.4,14.4,0,0,0-.23-1.45c-.1-.52-.26-1.06-.42-1.63a16.47,16.47,0,0,0-3.93-6.57,16,16,0,0,0-1.23-1.15,14.07,14.07,0,0,0-1.16-.92C171.76,399.12,170.73,398.66,170.76,398.6Z" style="fill:#263238"></path></g><g id="freepik--Caravan--inject-157"><polygon points="301.78 376.48 679.96 373.44 680.24 335.45 283.34 332.46 301.78 376.48" style="fill:#C2E1B9"></polygon><g style="opacity:0.6000000000000001"><polygon points="301.78 376.48 679.96 373.44 680.24 335.45 283.34 332.46 301.78 376.48"></polygon></g><path d="M207.72,162.26s-22.18,2.86-28.88,22.44-16.9,104.62-16.46,113.69,3.62,53.4,3.62,53.4.39,15.62,15.49,16.23,120.29,8.46,120.29,8.46l10.94-24.57a9.78,9.78,0,0,1,9-5.8l40.38.3a9.78,9.78,0,0,1,9.48,7.68c2,9.06,5.21,23,6.23,23l212,1.6,18-29.83a10.1,10.1,0,0,1,8.64-4.88h37.77a11.28,11.28,0,0,1,10,6.13l9.92,24.48,10.27.34a10.82,10.82,0,0,0,11.2-10.84c0-19.19-.42-56.53-3-59.16-3.5-3.55-54.71-24.58-54.71-24.58L596.34,235l45.07.12a20.16,20.16,0,0,0,18.35-11.7L669.18,203c-.71-3.33-19.85-33-30.06-48.62a20.1,20.1,0,0,0-17.65-9.1Z" style="fill:#C2E1B9"></path><path d="M528.76,201.94s0,.32,0,.94,0,1.55,0,2.76c0,2.43,0,6,0,10.59,0,9.21-.13,22.52-.21,39s-.24,36-.38,57.79c-.08,10.87-.16,22.29-.24,34.12q0,4.44-.07,8.95l0,4.53a7.76,7.76,0,0,0,1,4.26,7.4,7.4,0,0,0,3.19,3,8.68,8.68,0,0,0,4.39.79l9.36.07,41.2.32-.22.13,10.16-18.49,4.88-8.86a22.72,22.72,0,0,1,6.13-7.68,21.23,21.23,0,0,1,8.59-4.05,21.93,21.93,0,0,1,4.62-.5l4.51,0,17.09.14,7.94.07c1.28,0,2.55,0,3.81.13a20.83,20.83,0,0,1,3.65.69,21.13,21.13,0,0,1,11.11,7.6,56.3,56.3,0,0,1,3.17,5.17l2.77,4.79,4.7,8.16-.09-.05,10.31.12,2.67.05.9,0s-.31,0-.9,0h-2.67l-10.31,0h0l0-.05-4.75-8.13-2.79-4.78a55,55,0,0,0-3.18-5.13A20.88,20.88,0,0,0,658,331a20.25,20.25,0,0,0-3.6-.66c-1.22-.13-2.49-.11-3.78-.12l-7.93-.05L625.61,330c-3,0-6-.25-9,.46a20.89,20.89,0,0,0-8.39,4,22.28,22.28,0,0,0-6,7.55l-4.87,8.87-10.15,18.49-.07.14h-.15l-41.21-.31-9.35-.07a9.26,9.26,0,0,1-4.62-.84,8,8,0,0,1-3.41-3.21,8.37,8.37,0,0,1-1-4.52c0-1.52,0-3,0-4.53,0-3,0-6,.07-8.95.09-11.84.18-23.25.27-34.13.18-21.74.35-41.33.49-57.78s.28-29.75.37-39c.06-4.59.1-8.16.13-10.6,0-1.2,0-2.12.05-2.75S528.76,201.94,528.76,201.94Z" style="fill:#263238"></path><path d="M563.59,303.89s.2,0,.55-.1a3.11,3.11,0,0,0,1.37-.7,2.92,2.92,0,0,0,1-2.15,13.6,13.6,0,0,0,0-1.55,2.78,2.78,0,0,0-.7-1.49,2.81,2.81,0,0,0-1.55-.89,17.18,17.18,0,0,0-2.07-.06h-4.67l-10.7-.06a2.75,2.75,0,0,0-2.22,1.09,2.71,2.71,0,0,0-.52,1.13,9,9,0,0,0-.07,1.3,2.91,2.91,0,0,0,.77,2.25,2.8,2.8,0,0,0,2.08.87l8.74.12,5.88.13,1.6.06a2.05,2.05,0,0,1,.56.06,2.44,2.44,0,0,1-.56.05l-1.6,0-5.89,0h-8.73a3.29,3.29,0,0,1-2.44-1,3.39,3.39,0,0,1-.92-2.59,9.79,9.79,0,0,1,.07-1.4,3.31,3.31,0,0,1,3.26-2.64l10.69.1,4.67.06a17.18,17.18,0,0,1,2.15.09,3.22,3.22,0,0,1,2.5,2.74,12.18,12.18,0,0,1,0,1.6,3.11,3.11,0,0,1-1.15,2.29,2.93,2.93,0,0,1-1.48.65A1.67,1.67,0,0,1,563.59,303.89Z" style="fill:#263238"></path><path d="M255,291.78a4.63,4.63,0,0,1,.54-.1A3.08,3.08,0,0,0,257,291a2.89,2.89,0,0,0,1-2.14,13.49,13.49,0,0,0,0-1.55,2.88,2.88,0,0,0-2.26-2.39,17.12,17.12,0,0,0-2.07-.06h-4.67l-10.69-.06a2.81,2.81,0,0,0-2.23,1.09,2.75,2.75,0,0,0-.52,1.14,7.77,7.77,0,0,0-.06,1.3,2.87,2.87,0,0,0,.76,2.24,2.8,2.8,0,0,0,2.08.87l8.74.13,5.89.12,1.6.06a2.14,2.14,0,0,1,.56.06,2,2,0,0,1-.56.05l-1.6,0-5.89,0h-8.74a3.26,3.26,0,0,1-2.44-1,3.39,3.39,0,0,1-.91-2.59,7.59,7.59,0,0,1,.07-1.4,3.3,3.3,0,0,1,3.25-2.64l10.69.1,4.67.06a15.41,15.41,0,0,1,2.15.1,3.22,3.22,0,0,1,1.75,1,3.16,3.16,0,0,1,.76,1.69c.05.6,0,1.1,0,1.61a3.17,3.17,0,0,1-1.15,2.29,2.93,2.93,0,0,1-1.49.64A1.59,1.59,0,0,1,255,291.78Z" style="fill:#263238"></path><g style="opacity:0.4"><path d="M669.18,203l-140.42-1.06-.1,32.85,112.75.29a20.16,20.16,0,0,0,18.35-11.7Z"></path></g><g style="opacity:0.4"><polygon points="162.51 300.87 528 303.62 527.69 344.69 165.3 341.96 163.53 316.61 162.51 300.87"></polygon></g><path d="M292.06,362.61s0-.41,0-1.19,0-1.93,0-3.43c0-3,0-7.47.06-13.19.06-11.43.16-28,.27-48.38s.29-44.7.47-71.68c0-3.37.05-6.78.07-10.24,0-1.72,0-3.46,0-5.21,0-.87,0-1.74,0-2.62a6.79,6.79,0,0,0-.34-2.51,5.71,5.71,0,0,0-3.52-3.47,7,7,0,0,0-2.57-.32l-2.69,0L273,200.27l-22.41-.16L239.08,200l-5.78,0a5.71,5.71,0,0,0-5.6,5.2c0,.93,0,1.93,0,2.89,0,1.94,0,3.88,0,5.81q0,5.77-.08,11.49c-.06,7.6-.12,15.1-.18,22.46-.11,14.73-.23,28.94-.33,42.46-.23,27.06-.43,51.4-.6,71.82l-.18-.18,48.11.46,13.11.14,3.42.05,1.18,0h-4.53l-13.07-.05-48.22-.26h-.19v-.19c.14-20.42.31-44.77.49-71.82.09-13.53.2-27.73.3-42.46q.09-11,.17-22.47c0-3.8.05-7.63.08-11.49,0-1.93,0-3.86,0-5.8,0-1,0-1.93,0-2.94a6.26,6.26,0,0,1,6.11-5.67l5.79,0,11.47.09,22.4.17,10.92.09,2.7,0a7.34,7.34,0,0,1,2.73.35,6.17,6.17,0,0,1,3.81,3.77,6.86,6.86,0,0,1,.37,2.68c0,.88,0,1.76,0,2.64,0,1.75,0,3.49,0,5.22q0,5.19-.08,10.26c-.23,27-.44,51.35-.62,71.79s-.34,36.93-.45,48.36c-.06,5.69-.11,10.11-.14,13.12,0,1.49,0,2.62,0,3.4S292.06,362.61,292.06,362.61Z" style="fill:#263238"></path><rect x="385.28" y="190.34" width="77.52" height="111.82" rx="9.24" transform="translate(174.61 668.43) rotate(-89.57)" style="fill:#455a64"></rect><path d="M470.42,285.36a10.46,10.46,0,0,0,3.58-.75,9.48,9.48,0,0,0,3.53-2.62,9.13,9.13,0,0,0,2.08-5.55c.06-9.19.13-22.47.23-38.88q0-6.15.08-12.88c0-2.24,0-4.52,0-6.85a9.25,9.25,0,0,0-2.06-6.48,9,9,0,0,0-6.19-3.25c-2.46-.09-5,0-7.58-.08l-15.86-.11-70.6-.51a9.22,9.22,0,0,0-4.37,1.09,9,9,0,0,0-3.26,3.06,8.71,8.71,0,0,0-1.39,4.22c-.07,1.5,0,3-.06,4.57q-.07,9.15-.14,18c-.1,11.81-.19,23.2-.27,34.05,0,1.35-.09,2.73,0,4a9,9,0,0,0,7.33,7.85,23.71,23.71,0,0,0,3.78.18l3.77,0,7.36.06,26.85.23,38.87.38,10.57.13,2.75.05c.62,0,.93,0,.93,0l-.93,0h-2.75l-10.57,0-38.88-.21L390.45,285l-7.36-.05-3.77,0a24,24,0,0,1-3.86-.18,9.45,9.45,0,0,1-7.72-8.24c-.12-1.39,0-2.71,0-4.07.07-10.86.15-22.25.24-34.06q.06-8.85.13-18c0-1.53,0-3,.06-4.61a9.23,9.23,0,0,1,1.47-4.46,9.58,9.58,0,0,1,3.45-3.24,9.8,9.8,0,0,1,4.63-1.15l70.6.55,15.85.13c2.58,0,5.09,0,7.61.1a9.45,9.45,0,0,1,6.5,3.41,9.69,9.69,0,0,1,2.14,6.76c0,2.33,0,4.62-.06,6.85q-.06,6.72-.11,12.89c-.17,16.4-.3,29.68-.39,38.87a9.38,9.38,0,0,1-2.17,5.65,9.53,9.53,0,0,1-3.61,2.62,10,10,0,0,1-2.68.64Z" style="fill:#263238"></path><path d="M345.26,292.46s.38,0,1.09-.16a5.39,5.39,0,0,0,2.69-1.51,5.28,5.28,0,0,0,1.17-1.9,5.06,5.06,0,0,0,.28-1.25c0-.44,0-.92,0-1.41,0-2,0-4.2,0-6.67a5.26,5.26,0,0,0-1.25-3.44,5.13,5.13,0,0,0-3.51-1.78c-2.87,0-6,0-9.26-.07l-21.25-.14a5.12,5.12,0,0,0-4.42,2.5,5,5,0,0,0-.72,2.47l0,2.68c0,1.78,0,3.52,0,5.23a5.12,5.12,0,0,0,4.3,4.92,22.17,22.17,0,0,0,2.32.09l4.5,0,8.08.1,11.7.17,3.19.07.82,0,.29,0a.94.94,0,0,1-.29,0l-.82,0-3.19,0h-11.7l-8.08,0-4.51,0a19.38,19.38,0,0,1-2.38-.08,5.46,5.46,0,0,1-2.33-.92,5.63,5.63,0,0,1-2.4-4.45c0-1.71,0-3.46,0-5.24q0-1.33,0-2.7a5.61,5.61,0,0,1,5.65-5.47l21.26.18c3.27,0,6.35,0,9.29.12a5.55,5.55,0,0,1,5.09,5.65c0,2.47-.06,4.7-.09,6.67,0,.49,0,1-.05,1.43a5.34,5.34,0,0,1-.31,1.31,5.72,5.72,0,0,1-1.26,2,5.54,5.54,0,0,1-2.82,1.48A4.05,4.05,0,0,1,345.26,292.46Z" style="fill:#263238"></path><circle cx="340.42" cy="382.56" r="33.74" transform="translate(-20.19 18.97) rotate(-3.1)" style="fill:#263238"></circle><path d="M306.7,381.73s0,.06,0,.09a33.74,33.74,0,0,0,67.46,1.48v-.09Z" style="fill:#263238"></path><path d="M316.74,382a23.69,23.69,0,1,0,24.2-23.16A23.69,23.69,0,0,0,316.74,382Z" style="fill:#fafafa"></path><path d="M340.94,358.88A23.68,23.68,0,0,0,316.74,382l47.36,1A23.68,23.68,0,0,0,340.94,358.88Z" style="fill:#e0e0e0"></path><path d="M326,382.24a14.43,14.43,0,1,0,14.74-14.11A14.42,14.42,0,0,0,326,382.24Z" style="fill:#263238"></path><circle cx="635.15" cy="382.2" r="33.74" transform="translate(237.65 1007.89) rotate(-88.61)" style="fill:#263238"></circle><path d="M601.43,381.38a.22.22,0,0,0,0,.08,33.74,33.74,0,1,0,67.46,1.48s0-.05,0-.08Z" style="fill:#263238"></path><path d="M611.47,381.68a23.69,23.69,0,1,0,24.2-23.16A23.68,23.68,0,0,0,611.47,381.68Z" style="fill:#fafafa"></path><path d="M635.67,358.52a23.7,23.7,0,0,0-24.2,23.16l47.36,1A23.7,23.7,0,0,0,635.67,358.52Z" style="fill:#e0e0e0"></path><path d="M620.72,381.89a14.43,14.43,0,1,0,14.74-14.11A14.44,14.44,0,0,0,620.72,381.89Z" style="fill:#263238"></path><path d="M540.9,249.8l-.29,38.38,77.65.59.07-9.46a7.59,7.59,0,0,0-2-5.19L588.4,245.63a7.78,7.78,0,0,0-5.29-2.34l-34.54-1.23A7.8,7.8,0,0,0,540.9,249.8Z" style="fill:#455a64"></path><path d="M540.9,249.8s0-.18,0-.55a6.86,6.86,0,0,1,.26-1.6,7.87,7.87,0,0,1,3.84-4.77,8.28,8.28,0,0,1,2-.75,8.82,8.82,0,0,1,2.37-.16l5.36.17,13.09.43c4.86.17,10.16.31,15.9.56a8.09,8.09,0,0,1,4.09,1.7c.6.48,1.09,1,1.63,1.57s1,1.08,1.59,1.62l6.6,6.72,14.19,14.45,3.73,3.8.94,1a8.17,8.17,0,0,1,.85,1.11,8,8,0,0,1,1,2.59,11.94,11.94,0,0,1,.15,2.79c0,.91,0,1.83,0,2.75,0,1.85,0,3.71,0,5.58V289h-.26l-4.21,0-73.44-.61h-.2v-.2c.12-11.81.22-21.4.29-28.06,0-3.3.09-5.88.11-7.65,0-.86,0-1.52,0-2s0-.68,0-.68,0,.23,0,.68,0,1.13,0,2c0,1.77,0,4.35,0,7.65,0,6.66-.07,16.25-.12,28.06l-.2-.19,73.44.48,4.21,0-.26.25c0-1.87,0-3.72,0-5.57l0-2.76a11.78,11.78,0,0,0-.15-2.67,7.3,7.3,0,0,0-1-2.42,8.06,8.06,0,0,0-.78-1l-.94-1q-1.89-1.9-3.73-3.8l-14.16-14.47-6.59-6.73-1.58-1.62a20.8,20.8,0,0,0-1.59-1.54,7.55,7.55,0,0,0-3.86-1.63c-5.67-.26-11-.42-15.86-.62l-13.08-.5-5.36-.22a9.32,9.32,0,0,0-2.33.13,8,8,0,0,0-2,.72,7.8,7.8,0,0,0-3.83,4.62A11.82,11.82,0,0,0,540.9,249.8Z" style="fill:#263238"></path><path d="M637.22,280.36l-8.7.62-32-35.27a2.94,2.94,0,0,1,1.35-4.8h0a2.91,2.91,0,0,1,3,.85Z" style="fill:#455a64"></path><path d="M571.67,259a65.52,65.52,0,0,1-6.58,5,65.38,65.38,0,0,1-6.88,4.63,65.52,65.52,0,0,1,6.58-5.05A66.79,66.79,0,0,1,571.67,259Z" style="fill:#fff"></path><path d="M574.93,260.66c.08.12-4.58,3.63-10.42,7.83S553.88,276,553.8,275.9s4.57-3.62,10.41-7.83S574.84,260.55,574.93,260.66Z" style="fill:#fff"></path><path d="M637.88,280.31a3,3,0,0,1-.64.1l-1.85.18-6.86.57.06-.34c5.43,2.61,13,6.51,21.11,11.27,7.94,4.66,15.12,8.87,20.44,11.69l6.31,3.34,1.71.91a4.28,4.28,0,0,1,.58.35,3.12,3.12,0,0,1-.62-.25l-1.76-.83c-1.53-.72-3.71-1.81-6.39-3.19-5.37-2.75-12.6-6.91-20.53-11.57-8.11-4.75-15.62-8.7-21-11.4l-.61-.3.67,0,6.87-.41,1.86-.08A2.67,2.67,0,0,1,637.88,280.31Z" style="fill:#263238"></path><path d="M675.17,297.15s1.61,19.76,18.07,21.12c0,0-.62-11.08-2-13S675.17,297.15,675.17,297.15Z" style="fill:#e0e0e0"></path><rect x="580.64" y="235.25" width="17.63" height="46.58" rx="7.5" transform="translate(1.97 -4.44) rotate(0.43)" style="fill:#e0e0e0"></rect><path d="M592.69,269.78h-2l.29-38.19a6.32,6.32,0,0,0-6.27-6.37l-6.71-.05v-2l6.71.05a8.31,8.31,0,0,1,8.26,8.38Z" style="fill:#e0e0e0"></path><path d="M593,235.17a4.84,4.84,0,0,1,0,.75c0,.54,0,1.26,0,2.15,0,1.92-.08,4.6-.13,7.89s-.16,7.31-.26,11.71c-.06,2.2-.11,4.51-.17,6.91,0,1.2-.06,2.41-.1,3.65,0,.62,0,1.24-.05,1.87a1.79,1.79,0,0,1-.28,1,1.11,1.11,0,0,1-1.06.49,1.21,1.21,0,0,1-1-.59,1.79,1.79,0,0,1-.21-1.06l.06-1.87c0-1.24.06-2.46.1-3.65.07-2.4.14-4.71.2-6.91.14-4.4.27-8.35.37-11.7s.23-6,.3-7.89c0-.89.08-1.6.1-2.14a3.46,3.46,0,0,1,.08-.75,4.84,4.84,0,0,1,0,.75c0,.54,0,1.25,0,2.15,0,1.92-.08,4.6-.13,7.89s-.16,7.31-.26,11.7c-.06,2.21-.11,4.52-.17,6.92,0,1.2-.06,2.42-.1,3.65,0,.62,0,1.25-.05,1.87s.18,1.09.72,1.11.79-.45.77-1l.06-1.87c0-1.24.06-2.46.1-3.65.07-2.4.14-4.71.2-6.91.14-4.39.27-8.35.37-11.7s.23-6,.3-7.89c0-.89.08-1.6.1-2.14A3.46,3.46,0,0,1,593,235.17Z" style="fill:#263238"></path><path d="M617.92,328.52c-.14,0-.19-8.95-.11-20s.27-20,.42-20,.19,8.95.11,20S618.07,328.52,617.92,328.52Z" style="fill:#263238"></path><rect x="230.29" y="221.48" width="59.51" height="44.45" rx="4.63" transform="translate(14.39 501.9) rotate(-89.57)" style="fill:#455a64"></rect><path d="M277.41,273.59a5.39,5.39,0,0,0,1.95-.48,4.64,4.64,0,0,0,1.82-1.55,5,5,0,0,0,.8-3.15c0-5.08,0-12.4.08-21.43,0-4.52.05-9.48.08-14.79q0-4,.05-8.25c0-1.41,0-2.85,0-4.31a7,7,0,0,0-.16-2.11,4.41,4.41,0,0,0-2.82-3,6,6,0,0,0-2.18-.24l-4.65,0-9.58-.07-20.14-.14a4.4,4.4,0,0,0-3.94,2.4,4.77,4.77,0,0,0-.48,2.35c0,.84,0,1.69,0,2.53,0,3.36-.05,6.67-.07,9.93-.06,6.5-.11,12.78-.16,18.76s-.11,11.67-.15,17c0,.65,0,1.34,0,2a4.35,4.35,0,0,0,.5,1.77A4.43,4.43,0,0,0,241.1,273a6.05,6.05,0,0,0,1.76.17l1.8,0,3.47,0,21.42.25,5.83.09,1.51,0,.52,0-.52,0-1.51,0h-5.83l-21.42-.08-3.48,0h-1.79a6.33,6.33,0,0,1-1.87-.17,4.82,4.82,0,0,1-3.56-4.32c0-.69,0-1.32,0-2,0-5.32.06-11,.1-17s.08-12.26.13-18.77q0-4.87.07-9.93c0-.84,0-1.68,0-2.53a5.22,5.22,0,0,1,.54-2.58,4.92,4.92,0,0,1,4.4-2.69l20.15.16,9.58.08,4.64,0a6.73,6.73,0,0,1,2.34.27,4.79,4.79,0,0,1,2,1.27,5,5,0,0,1,1.15,2,7.54,7.54,0,0,1,.17,2.25c0,1.45,0,2.89,0,4.31,0,2.83-.05,5.58-.07,8.24-.05,5.32-.1,10.27-.14,14.79-.11,9-.19,16.35-.25,21.43a5.08,5.08,0,0,1-.87,3.23,4.71,4.71,0,0,1-1.91,1.57,4.93,4.93,0,0,1-1.47.38C277.58,273.6,277.41,273.59,277.41,273.59Z" style="fill:#263238"></path><path d="M273.33,232c.09.12-4.94,4.1-11.22,8.89s-11.45,8.59-11.54,8.48,4.94-4.09,11.22-8.89S273.24,231.84,273.33,232Z" style="fill:#fff"></path><path d="M271.69,228.81a92.66,92.66,0,0,1-7.7,5.89,88.09,88.09,0,0,1-8,5.47,93.18,93.18,0,0,1,7.7-5.89A88.09,88.09,0,0,1,271.69,228.81Z" style="fill:#fff"></path><polygon points="669.18 203.02 528.76 201.97 528.76 201.92 669.18 202.97 669.18 203.02" style="fill:#263238"></polygon><path d="M543.14,162.63,543,185.34a5.54,5.54,0,0,0,5.5,5.58l73.59.56a5.54,5.54,0,0,0,4.82-8.34l-14.59-24.91a5.53,5.53,0,0,0-4.93-2.73l-58.83,1.63A5.55,5.55,0,0,0,543.14,162.63Z" style="fill:#455a64"></path><path d="M543.14,162.63s0-.19,0-.57a5.35,5.35,0,0,1,.4-1.61,5.6,5.6,0,0,1,5.07-3.42l23.44-.73,34.76-1a6,6,0,0,1,4.73,1.62A9.11,9.11,0,0,1,613,159l1.29,2.2,5.31,9,5.49,9.37c.47.79.94,1.59,1.4,2.39a9.23,9.23,0,0,1,1.22,2.57,5.8,5.8,0,0,1-1.52,5.44,5.74,5.74,0,0,1-2.52,1.49,10.37,10.37,0,0,1-2.86.21l-5.56,0-10.87-.08-20.53-.17-34.78-.32a8.3,8.3,0,0,1-1.86-.15,5.81,5.81,0,0,1-1.7-.7,5.7,5.7,0,0,1-2.28-2.64,6.09,6.09,0,0,1-.42-1.64c0-.56,0-1.09,0-1.62,0-1.05,0-2.07,0-3.05,0-3.93.08-7.31.12-10.09s.07-4.89.09-6.37l0-1.66c0-.37,0-.56,0-.56s0,.19,0,.56,0,.95,0,1.66v6.38c0,2.77,0,6.16,0,10.08,0,1,0,2,0,3.05,0,.53,0,1.07,0,1.58a5.64,5.64,0,0,0,.41,1.55,5.4,5.4,0,0,0,3.75,3.12,7.94,7.94,0,0,0,1.78.13l34.78.21,20.54.14,10.86.08,5.56,0a10.16,10.16,0,0,0,2.72-.19,5.3,5.3,0,0,0,3.68-6.31,9.16,9.16,0,0,0-1.16-2.43l-1.4-2.39-5.49-9.37-5.29-9.05c-.44-.74-.87-1.48-1.29-2.21a9.29,9.29,0,0,0-1.4-2,5.51,5.51,0,0,0-4.38-1.49l-34.76.91-23.44.57a5.5,5.5,0,0,0-3.36,1.18,5.57,5.57,0,0,0-1.62,2.08A6.42,6.42,0,0,0,543.14,162.63Z" style="fill:#263238"></path><path d="M542.24,185.89c0,.14-81.23-.36-181.4-1.11s-181.42-1.48-181.42-1.63,81.21.36,181.42,1.11S542.24,185.74,542.24,185.89Z" style="fill:#fff"></path><path d="M543,178.11c0,.14-80.2-.34-179.12-1.09s-179.15-1.46-179.14-1.61,80.19.35,179.14,1.09S543,178,543,178.11Z" style="fill:#fff"></path><path d="M460.15,223.84s-.06.06-.18.15l-.58.4-2.22,1.47c-1.93,1.27-4.76,3.07-8.26,5.27-7,4.4-16.81,10.32-27.8,16.55S400,259.26,392.63,263c-3.69,1.88-6.69,3.37-8.78,4.38l-2.4,1.15-.63.28-.22.09s.06-.06.19-.13l.61-.34,2.36-1.23,8.7-4.53c7.33-3.84,17.41-9.24,28.4-15.46s20.79-12.09,27.85-16.41l8.35-5.13,2.28-1.39.6-.35A1.37,1.37,0,0,1,460.15,223.84Z" style="fill:#fff"></path><path d="M428.69,233c.06.13-6.59,3.7-14.86,8s-15,7.63-15.09,7.51,6.58-3.7,14.86-8S428.62,232.91,428.69,233Z" style="fill:#fff"></path><path d="M601.17,167.15c.06.13-7.83,3.63-17.63,7.82s-17.78,7.47-17.84,7.34,7.84-3.64,17.64-7.82S601.12,167,601.17,167.15Z" style="fill:#fff"></path><path d="M595.76,175A66.64,66.64,0,0,1,588,178a65.33,65.33,0,0,1-7.94,2.59,68.55,68.55,0,0,1,7.76-3.08A69.37,69.37,0,0,1,595.76,175Z" style="fill:#fff"></path><rect x="87.97" y="339.1" width="60.53" height="77.85" style="fill:#263238"></rect><path d="M142.47,392.16s0-.21,0-.59,0-1,0-1.71c0-1.51,0-3.68,0-6.46,0-5.58-.06-13.56-.11-23.29l.21.2L94,360.37l.26-.26h0v16.61c0,5.36,0,10.52,0,15.42l-.24-.23,34.87.11,10,.07,2.67,0h.94l-.22,0h-.67l-2.62,0-10,.07-35,.11h-.24v-.24c0-4.9,0-10.06,0-15.42,0-2.68,0-5.42,0-8.19v-8.42h0c-.23.23.32-.32.26-.27l48.48.06h.21v.21c-.05,9.78-.09,17.81-.11,23.42,0,2.76,0,4.92-.06,6.42,0,.71,0,1.26,0,1.66S142.47,392.16,142.47,392.16Z" style="fill:#455a64"></path><path d="M109.5,376.59s0-.45-.26-1.22a5.08,5.08,0,0,0-1.88-2.7,4.9,4.9,0,1,0-4.65,8.51,5,5,0,0,0,4.65-.66,5.15,5.15,0,0,0,1.88-2.7c.22-.77.21-1.23.26-1.23s0,.12,0,.33a4.15,4.15,0,0,1-.09.95,5.13,5.13,0,0,1-1.85,2.94,5.29,5.29,0,0,1-5,.82,5.22,5.22,0,0,1-2.5-1.86,5.3,5.3,0,0,1,0-6.36,5.2,5.2,0,0,1,2.5-1.85,5.29,5.29,0,0,1,5,.82,5.1,5.1,0,0,1,1.85,2.94,4.07,4.07,0,0,1,.09.94Q109.53,376.59,109.5,376.59Z" style="fill:#455a64"></path><path d="M102.81,376a.79.79,0,1,1-1.11-.05A.79.79,0,0,1,102.81,376Z" style="fill:#455a64"></path><path d="M106.77,376a.78.78,0,0,1,0,1.11.78.78,0,1,1-1-1.16A.78.78,0,0,1,106.77,376Z" style="fill:#455a64"></path><circle cx="118.87" cy="376.59" r="5.12" style="fill:#455a64"></circle><path d="M138.71,376.59c-.05,0,0-.45-.26-1.22a5,5,0,0,0-1.87-2.7,4.9,4.9,0,1,0-4.65,8.51,5,5,0,0,0,4.65-.66,5.12,5.12,0,0,0,1.87-2.7c.22-.77.21-1.23.26-1.23s0,.12,0,.33a3.75,3.75,0,0,1-.1.95,5.13,5.13,0,0,1-1.85,2.94,5.3,5.3,0,0,1-7.54-1,5.34,5.34,0,0,1,0-6.36,5.31,5.31,0,0,1,7.54-1,5.1,5.1,0,0,1,1.85,2.94,3.68,3.68,0,0,1,.1.94C138.74,376.48,138.73,376.59,138.71,376.59Z" style="fill:#455a64"></path><path d="M132,376a.79.79,0,1,1-1.16,1.06A.79.79,0,0,1,132,376Z" style="fill:#455a64"></path><path d="M136,376a.79.79,0,1,1-1.11-.05A.79.79,0,0,1,136,376Z" style="fill:#455a64"></path><path d="M113.74,376.59s-1.07,8.34,5.13,8.34,5.12-8.8,5.12-8.8Z" style="fill:#455a64"></path><path d="M114,353.13V355h-7.31V353.5l3.73-3.53c.86-.81,1-1.31,1-1.78,0-.76-.52-1.2-1.55-1.2a2.36,2.36,0,0,0-2,1l-1.63-1a4.46,4.46,0,0,1,3.84-1.8c2.16,0,3.59,1.1,3.59,2.86,0,.94-.26,1.8-1.61,3.06l-2.23,2.1Z" style="fill:#e0e0e0"></path><path d="M114.86,350.11c0-3.19,1.77-5,4.14-5s4.15,1.81,4.15,5-1.75,5-4.15,5S114.86,353.31,114.86,350.11Zm6,0c0-2.2-.78-3.11-1.9-3.11s-1.88.91-1.88,3.11.78,3.11,1.88,3.11S120.9,352.31,120.9,350.11Z" style="fill:#e0e0e0"></path><path d="M131.25,352c0,1.63-1.26,3.13-4,3.13a6.67,6.67,0,0,1-3.69-1l.87-1.71a4.7,4.7,0,0,0,2.76.87c1.12,0,1.82-.46,1.82-1.25s-.54-1.19-1.82-1.19h-1v-1.48l2-2.25H124v-1.8h6.78v1.46l-2.19,2.48A2.76,2.76,0,0,1,131.25,352Z" style="fill:#e0e0e0"></path><path d="M320.59,293.56s0,.3,0,.89v2.63c0,2.33,0,5.73,0,10.11-.05,8.8-.13,21.5-.23,37.19s-.25,34.4-.41,55.16a29,29,0,0,1-.89,7.87,10.51,10.51,0,0,1-4.88,6.38,18.29,18.29,0,0,1-8,2c-2.79.14-5.58,0-8.4.05-11.3,0-23,0-35,.11-24,.21-46.78.62-67.54.87s-39.46.37-55.17.27c-2,0-3.88,0-5.74-.07l-5.46-.2-5.15-.18a3.93,3.93,0,0,1-2.4-.68,4.71,4.71,0,0,1-1.45-2,14.22,14.22,0,0,1-.9-4.45c-.09-1.45-.08-2.85,0-4.18s.1-2.62.14-3.83,0-2.38,0-3.48c.11-4.39.28-7.79.3-10.1,0-1.16,0-2,0-2.63s0-.9,0-.9,0,.31.06.9,0,1.47,0,2.63c0,2.31-.12,5.72-.19,10.11,0,1.09,0,2.25,0,3.47s-.08,2.5-.12,3.83,0,2.73.07,4.16a14.31,14.31,0,0,0,.9,4.36,4.35,4.35,0,0,0,1.35,1.82,3.6,3.6,0,0,0,2.25.62l5.14.16,5.45.18c1.87.07,3.78,0,5.74.05,15.7.05,34.4-.08,55.16-.38s43.58-.7,67.55-.92c12-.11,23.67-.14,35-.09,2.82,0,5.63.09,8.38-.05a17.54,17.54,0,0,0,7.8-1.94,10,10,0,0,0,4.66-6.09,28.53,28.53,0,0,0,.88-7.74c.2-20.75.38-39.45.53-55.15s.3-28.39.39-37.19c.06-4.38.1-7.78.13-10.11,0-1.14,0-2,.05-2.63S320.59,293.56,320.59,293.56Z" style="fill:#455a64"></path></g><g id="freepik--Floor--inject-157"><path d="M735.37,416.9c0,.15-161.8.26-361.35.26s-361.39-.11-361.39-.26,161.77-.26,361.39-.26S735.37,416.76,735.37,416.9Z" style="fill:#263238"></path><path d="M642.49,480.17c0,.15-90.16.26-201.35.26s-201.37-.11-201.37-.26,90.14-.26,201.37-.26S642.49,480,642.49,480.17Z" style="fill:#263238"></path></g><g id="freepik--Birds--inject-157"><path d="M375.14,68a12.64,12.64,0,0,1-.87,1,21.62,21.62,0,0,0-5.36,14.29v.14l-.4,0a19,19,0,0,0-5.23-10.42,26,26,0,0,0-3.82-3.1,1.3,1.3,0,0,1,.32.14c.19.11.5.26.85.5a17.36,17.36,0,0,1,2.85,2.26,18.83,18.83,0,0,1,5.43,10.56l-.4,0V83.3a20.91,20.91,0,0,1,3.36-11.52,18.24,18.24,0,0,1,2.28-2.87c.29-.32.56-.54.72-.7S375.13,68,375.14,68Z" style="fill:#263238"></path><path d="M434.49,109.3s-.68-.23-1.95-.52a15.93,15.93,0,0,0-5.47-.21,14.79,14.79,0,0,0-7.36,3.18,15.21,15.21,0,0,0-5.19,8.25l0,.09-.15.59-.23-.56a16.41,16.41,0,0,0-6.22-7.51,15.77,15.77,0,0,0-7.6-2.53,16.77,16.77,0,0,0-5.43.49c-1.25.33-1.91.62-1.93.59a2.43,2.43,0,0,1,.48-.23,12.53,12.53,0,0,1,1.41-.51,16.2,16.2,0,0,1,5.49-.62,16,16,0,0,1,7.78,2.5,16.62,16.62,0,0,1,6.39,7.67l-.38,0,0-.09a15.53,15.53,0,0,1,5.35-8.45,14.9,14.9,0,0,1,7.56-3.17,15.19,15.19,0,0,1,5.53.34,10.82,10.82,0,0,1,1.44.46A3.07,3.07,0,0,1,434.49,109.3Z" style="fill:#263238"></path><path d="M475.93,97.59a15.48,15.48,0,0,1-1.05,1.19,25.62,25.62,0,0,0-2.56,3.47,25.15,25.15,0,0,0-3.81,13.47v.17l-.4,0a22.48,22.48,0,0,0-6.21-12.36,23.23,23.23,0,0,0-3.25-2.76c-.83-.57-1.31-.86-1.29-.89s.13,0,.36.17.59.31,1,.59a20.59,20.59,0,0,1,3.37,2.69,22.06,22.06,0,0,1,3.87,5.09,21.77,21.77,0,0,1,2.53,7.41l-.39,0v-.17a24.79,24.79,0,0,1,4-13.63,21.93,21.93,0,0,1,2.69-3.41,11.69,11.69,0,0,1,.84-.82A1.47,1.47,0,0,1,475.93,97.59Z" style="fill:#263238"></path></g></svg>